<?xml version="1.0" encoding="utf-8"?>
<!-- Generator: Adobe Illustrator 30.3.0, SVG Export Plug-In . SVG Version: 9.03 Build 0)  -->
<svg version="1.0" id="Layer_1" xmlns="http://www.w3.org/2000/svg" xmlns:xlink="http://www.w3.org/1999/xlink" x="0px" y="0px"
	 viewBox="0 0 1000 1000" style="enable-background:new 0 0 1000 1000;" xml:space="preserve">
<g>
	<path d="M156.58,314.13c3.42-33.95,21.29-54.17,53.62-61.27c19.07-4.19,35.75,2.32,51.14,12.98c14.25,9.88,27.02,21.85,42.76,29.62
		c19.52,9.63,38.37,8.72,57.37-1.91c15.28-8.55,28.12-20.38,42.51-30.08c23.45-15.81,52.93-15.81,74.35-0.05
		c22.74,16.73,31.95,43.18,24.41,70.13c-7.32,26.18-29.86,44.91-57.87,46.6c-18.94,1.14-35.35-6.17-49.64-18.56
		c-10.55-9.15-21.47-17.8-33.58-24.93c-25.15-14.8-48.49-10.18-70.72,6.22c-10.02,7.39-19.82,15.11-29.43,23.04
		c-35.82,29.54-90.88,11.93-102.35-32.97C157.65,327.14,157.31,321.04,156.58,314.13z"/>
	<path d="M270.7,676.95c-13.91,31.99-43.51,47.03-75.98,39.35c-29.74-7.04-49.97-34.65-47.87-67c1.54-23.66,13.93-41.04,34.5-52.62
		c13.5-7.6,27.53-14.24,40.37-23.07c24.17-16.62,30.93-39.84,26.06-67.46c-2.35-13.35-5.35-26.59-8.16-39.87
		c-5.7-26.98,3.48-48.89,24.99-64.62c20.95-15.33,44.82-16.47,67.6-4.46c23.28,12.27,35.46,32.75,33.97,59.51
		c-1.31,23.44-12.27,41.8-33.21,53.32c-10.27,5.65-21.03,10.42-31.33,16.01c-36.42,19.8-46.05,42.08-36.08,82.62
		c2.7,10.98,4.74,22.15,7.92,32.99C276.98,653.61,274.26,664.79,270.7,676.95z"/>
	<path d="M802.41,623.48c31.19,12.89,41.53,40.32,40.2,62.26c-1.84,30.34-19.56,51.87-46.74,58.76
		c-22.17,5.62-42.54,1.05-60.78-13.38c-11.24-8.89-22.91-17.37-35.04-24.99c-20.37-12.79-41.38-12.7-62.28-0.71
		c-12.19,6.99-23.13,15.72-34.14,24.37c-25.85,20.3-55.84,23.23-80,7.88c-29.97-19.04-38.77-61.84-18.69-91
		c20.75-30.13,64.51-36.24,94.47-13.1c13.75,10.62,26.54,22.47,41.95,30.91c19.01,10.42,37.49,9.66,55.96-1.25
		c12.1-7.15,23.3-15.51,33.69-24.91C751.66,619.63,775.23,615,802.41,623.48z"/>
	<path d="M789.61,417.51c-19.41,11.69-35.37,25.36-38.79,48.47c-2.42,16.35,1.57,32.25,5.26,48.09c3.67,15.75,8.02,31.28,3.43,47.91
		c-7.42,26.86-32.7,47.34-60.69,47.94c-28.39,0.6-54.42-18.12-62.7-45.09c-8.46-27.57,1.73-57.82,25.49-72.63
		c12.81-7.99,26.6-14.38,39.89-21.61c30.7-16.71,40.94-38.48,33.93-72.38c-2.98-14.39-6.91-28.59-9.39-43.06
		c-6.87-40.02,20.5-64.9,43.47-71.44c31.73-9.04,64.96,5.82,77.82,34.76c13.34,30.01,2.15,65.61-26.04,81.95
		C811.14,406.29,800.65,411.54,789.61,417.51z"/>
	<path d="M534.9,871.61c-21.44,21.06-50.4,25.7-75.72,12.63c-24.17-12.47-36.97-39.15-33.69-67.51c2-17.28,1.86-34.84-2.42-51.85
		c-5.21-20.7-19.37-33.96-38.66-41.5c-15.11-5.9-30.87-10.1-46.1-15.72c-27.77-10.24-45.92-42.48-40.8-69.63
		c7.29-38.69,37.31-55.34,66.41-54.46c40.63,1.23,67.88,38.18,60.78,81.56c-2.54,15.5-2.35,30.89,1.08,46.12
		c4.44,19.69,17.48,32.18,35.46,40.02c14.95,6.52,31.06,9.44,46.47,14.52C553.95,781.07,568.15,834.96,534.9,871.61z"/>
	<path d="M553.17,123.78c18.49,17.59,23.73,38.71,20.78,62.54c-1.97,15.88-1.35,31.74,2.41,47.24
		c4.25,17.53,15.19,30.15,31.08,38.49c14.14,7.42,29.4,11.74,44.65,16.18c39.38,11.45,58.71,45.79,47.02,83.16
		c-9.02,28.83-32.87,44.05-67.64,43.18c-24.34-0.61-48.57-21.11-55.08-46.61c-2.84-11.13-2.7-22.18-1.22-33.65
		c2.08-16.09,2.53-32.48-1.88-48.39c-5.37-19.37-18.85-31.76-37.02-38.64c-14.08-5.34-28.82-8.89-43.21-13.41
		c-46.37-14.59-61.83-67.53-30.64-104.76C483.47,103.96,523.88,101.31,553.17,123.78z"/>
	<path d="M366.55,215.72c-8.96,19.21-25.27,29.94-41.79,28.21c-19.94-2.09-34.06-15.06-38.68-35.55
		c-4.56-20.2,11.55-44.01,32.09-47.45c25.04-4.19,48.62,12.02,50.3,34.94C368.94,202.18,369.73,208.73,366.55,215.72z"/>
	<path d="M354.46,765.46c15.76,16.46,19.29,36.68,9.83,52.97c-9.46,16.29-28.89,24.6-46.46,19.88
		c-18.15-4.88-28.5-17.23-31.16-37.15c-2.04-15.27,6.25-32.33,20.5-39.78C323.19,752.99,339.01,753.81,354.46,765.46z"/>
	<path d="M131.67,465.61c30.73-16.43,59.44-3.02,65.65,29.82c3.87,20.46-14.47,43.49-36.82,46.22
		c-22.18,2.7-43.98-14.67-45.73-35.71C113.42,489.68,117.51,476.12,131.67,465.61z"/>
	<path d="M655.84,835.78c-22-11.34-30.31-31.31-22.82-53.37c6.27-18.45,26.9-29.75,47.4-25.98c19.71,3.63,34.48,21.98,33.51,42.37
		C712.48,829.71,681.39,847.12,655.84,835.78z"/>
	<path d="M679.45,242.02c-24.48,4.22-46.93-11.6-48.74-33.57c-2.4-29.13,12.97-46.69,39.54-48c21.87-1.08,39.62,12.1,42.87,37.58
		C715.3,215.19,704.55,236.91,679.45,242.02z"/>
	<path d="M862.41,536.57c-20.97,7.57-37.65,3.99-50.15-10.23c-10.83-12.33-13.53-32.25-5.72-46.64
		c9.2-16.92,24.09-23.12,42.77-21.26c16.77,1.67,28.42,10.72,33.48,26.44c5.15,16,3.37,31.45-9.7,43.81
		C870.11,531.51,866.53,533.72,862.41,536.57z"/>
</g>
</svg>
