<?xml version="1.0" encoding="UTF-8"?>
<svg id="Layer_1" xmlns="http://www.w3.org/2000/svg" version="1.1" viewBox="0 0 620 928">
  <!-- Generator: Adobe Illustrator 30.3.0, SVG Export Plug-In . SVG Version: 2.1.3 Build 182)  -->
  <defs>
    <style>
      .st0 {
        fill: #dc2f49;
      }
    </style>
  </defs>
  <path d="M518.63,1.59c-.45,1.04-.89,96.78-1.19,212.56l-.3,210.63-8.02-10.98c-12.77-17.52-43.2-46.76-60.27-58.04-46.16-30.43-92.33-44.09-149.63-44.23-27.31,0-45.72,1.93-68.58,7.42C111.46,347.3,23.44,444.53,3.25,570.11c-4.01,25.68-3.71,78.67.74,103.46,12.17,67.98,41.27,124.69,87.58,170.41,35.18,34.73,77.34,59.52,124.39,73.03,29.98,8.76,46.76,10.98,81.49,10.98,31.91.15,47.65-1.34,73.63-6.38,127.36-25.09,219.69-120.53,245.07-253.09l3.41-17.81V.55l-50.17-.45c-39.34-.3-50.32,0-50.77,1.48Z"/>
  <circle class="st0" cx="308" cy="619" r="209.41"/>
</svg>