<?xml version="1.0" encoding="utf-8"?>
<!-- Generator: Adobe Illustrator 30.3.0, SVG Export Plug-In . SVG Version: 9.03 Build 0)  -->
<svg version="1.0" id="Layer_1" xmlns="http://www.w3.org/2000/svg" xmlns:xlink="http://www.w3.org/1999/xlink" x="0px" y="0px"
	 viewBox="0 0 10000 3000" style="enable-background:new 0 0 10000 3000;" xml:space="preserve">
<style type="text/css">
	.st0{fill:#DC2F49;}
</style>
<g>
	<path d="M892.3,954.91v862l-1,5.23l-3.52,18.38c-19.15,100.01-67.04,184.09-135.88,244.11c-52.13,45.46-116.27,77.11-189.04,91.45
		c-34.44,6.68-55.31,8.66-97.62,8.45c-46.05,0-68.3-2.94-108.04-14.56c-62.38-17.91-118.28-50.78-164.92-96.83
		c-61.4-60.62-99.98-135.8-116.11-225.93c-5.9-32.87-6.3-103.12-0.98-137.17c26.77-166.5,143.47-295.4,301.48-332.99
		c30.31-7.28,54.72-9.84,90.92-9.84c75.97,0.19,137.18,18.29,198.38,58.64c22.64,14.95,62.98,53.72,79.91,76.95l6.02,8.25l4.61,6.31
		l0.39-279.26c0.4-153.5,0.98-280.44,1.58-281.81l-0.01-0.02c0.6-1.96,15.15-2.36,67.31-1.96l65.51,0.58L892.3,954.91z"/>
	<path d="M751.9,822.68v1261.95c68.84-60.02,116.73-144.1,135.88-244.11l3.52-18.38V822.68H751.9z"/>
	<circle class="st0" cx="479.82" cy="1774.87" r="277.64"/>
	<g>
		<path d="M1401.51,2161.38c-235.54,0-386.15-158.63-386.15-392.56c0-235.54,160.23-400.57,382.95-400.57
			c222.72,0,368.53,165.04,368.53,427.81h-612.08c11.22,153.82,112.16,248.36,248.35,248.36c104.15,0,176.25-51.27,238.74-147.41
			l104.15,65.69C1678.7,2086.07,1552.12,2161.38,1401.51,2161.38z M1621.02,1685.5c-16.02-124.98-104.15-205.09-224.32-205.09
			c-128.18,0-213.1,75.31-237.14,205.09H1621.02z"/>
		<path d="M2052.01,815.45v1329.9h-139.4V815.45H2052.01z"/>
		<path d="M2205.82,1767.21c0-235.54,160.23-398.97,374.94-398.97c115.36,0,224.32,51.27,275.59,136.19h3.21v-120.17h137.8v761.09
			h-137.8v-116.97h-3.21c-54.48,81.72-161.83,132.99-282,132.99C2354.84,2161.38,2205.82,1996.34,2205.82,1767.21z M2870.77,1760.8
			c0-168.24-115.36-272.39-262.78-272.39c-152.22,0-259.57,108.96-259.57,273.99c0,173.05,104.15,278.8,253.16,278.8
			C2760.22,2041.21,2870.77,1921.03,2870.77,1760.8z"/>
		<path d="M3088.67,1384.27h145.81l213.1,506.32h3.2l232.33-541.58h9.61l235.54,544.78h3.2l216.31-509.53h144.21L3931.48,2179h-8.01
			l-233.93-544.78h-3.2L3452.39,2179h-8.01L3088.67,1384.27z"/>
		<path d="M4314.42,1767.21c0-235.54,160.23-398.97,374.94-398.97c115.37,0,224.32,51.27,275.59,136.19h3.2v-120.17h137.8v761.09
			h-137.8v-116.97h-3.2c-54.48,81.72-161.83,132.99-282,132.99C4463.44,2161.38,4314.42,1996.34,4314.42,1767.21z M4979.38,1760.8
			c0-168.24-115.37-272.39-262.78-272.39c-152.22,0-259.57,108.96-259.57,273.99c0,173.05,104.15,278.8,253.16,278.8
			C4868.82,2041.21,4979.38,1921.03,4979.38,1760.8z"/>
		<path d="M5301.42,1384.27h136.19v107.35h4.81c46.47-78.51,120.17-123.38,193.88-123.38c30.44,0,62.49,8.01,89.73,22.43
			l-28.84,131.39l-3.21,1.6c-25.64-19.23-56.08-28.84-92.93-28.84c-89.73,0-160.23,78.51-160.23,176.25v474.28h-139.4V1384.27z"/>
		<path d="M6139.4,2161.38c-235.54,0-386.15-158.63-386.15-392.56c0-235.54,160.23-400.57,382.95-400.57
			c222.72,0,368.53,165.04,368.53,427.81h-612.08c11.22,153.82,112.16,248.36,248.36,248.36c104.15,0,176.25-51.27,238.74-147.41
			l104.15,65.69C6416.59,2086.07,6290.01,2161.38,6139.4,2161.38z M6358.91,1685.5c-16.02-124.98-104.15-205.09-224.32-205.09
			c-128.18,0-213.1,75.31-237.14,205.09H6358.91z"/>
		<path d="M6911.66,1993.14l91.33-75.31c38.46,73.71,99.34,128.18,193.88,128.18c81.72,0,141-48.07,141-124.98
			c0-65.69-36.85-96.14-145.81-124.98c-152.22-41.66-208.3-110.56-208.3-216.31c0-120.17,99.34-211.5,240.34-211.5
			c94.53,0,174.65,41.66,219.51,102.55l-65.69,86.52c-44.86-54.48-94.53-78.51-150.62-78.51c-57.68,0-107.35,28.84-107.35,86.52
			c0,62.49,35.25,86.52,139.4,120.17c147.41,44.86,211.5,105.75,211.5,221.12c0,149.01-112.16,254.76-272.39,254.76
			C7049.45,2161.38,6950.11,2079.66,6911.66,1993.14z"/>
		<path d="M7757.65,1384.27v467.87c0,121.77,67.3,187.47,176.25,187.47c108.96,0,177.85-68.9,177.85-195.48v-459.86h139.4v475.88
			c0,182.66-131.39,301.23-323.66,301.23c-187.47,0-309.24-107.35-309.24-291.62v-485.49H7757.65z"/>
		<path d="M8438.61,1108.67c0-54.48,36.85-89.73,89.73-89.73c52.88,0,89.73,35.25,89.73,89.73c0,54.48-35.25,89.73-89.73,89.73
			S8438.61,1163.15,8438.61,1108.67z M8598.84,1384.27v762.69h-139.4v-762.69H8598.84z"/>
		<path d="M9001,1137.51v246.75h144.21v116.97H9001v644.12h-137.8v-644.12h-86.52v-116.97h86.52v-246.75H9001z"/>
		<path d="M9585.84,2161.38c-235.54,0-386.15-158.63-386.15-392.56c0-235.54,160.23-400.57,382.95-400.57
			c222.72,0,368.53,165.04,368.53,427.81h-612.08c11.22,153.82,112.16,248.36,248.36,248.36c104.15,0,176.25-51.27,238.74-147.41
			l104.15,65.69C9863.04,2086.07,9736.46,2161.38,9585.84,2161.38z M9805.36,1685.5c-16.02-124.98-104.15-205.09-224.32-205.09
			c-128.18,0-213.1,75.31-237.14,205.09H9805.36z"/>
	</g>
</g>
</svg>
