<?xml version="1.0" encoding="UTF-8"?>
<svg id="Layer_1" xmlns="http://www.w3.org/2000/svg" version="1.1" viewBox="0 0 800 800">
  <!-- Generator: Adobe Illustrator 30.1.0, SVG Export Plug-In . SVG Version: 2.1.1 Build 136)  -->
  <defs>
    <style>
      .st0 {
        fill: none;
        stroke: #000;
        stroke-miterlimit: 10;
        stroke-width: 60px;
      }
    </style>
  </defs>
  <path class="st0" d="M283.5,332.3h-128c-18.8-.2-36.9,7.2-50.2,20.3-13.4,13.2-21,31.1-21.2,49.9v265.8c.3,39.1,32.3,70.5,71.4,70.2h128c18.8.2,36.9-7.2,50.2-20.3,13.4-13.2,21-31.1,21.2-49.9v-265.7c-.2-18.8-7.8-36.7-21.2-49.9-13.4-13.2-31.5-20.5-50.2-20.3Z"/>
  <path class="st0" d="M283.5,61.5h-128c-38.3-1.1-70.2,29.1-71.4,67.4v45.8c1.2,38.3,33.1,68.4,71.4,67.4h128c38.3,1.1,70.2-29.1,71.4-67.4v-45.8c-1.2-38.3-33.1-68.4-71.4-67.4Z"/>
  <path class="st0" d="M516.5,467.7h127.9c18.8.2,36.9-7.1,50.3-20.3,13.4-13.2,21-31.1,21.2-49.9V131.8c-.2-18.8-7.8-36.7-21.2-49.9-13.4-13.2-31.5-20.5-50.2-20.3h-128c-18.8-.2-36.9,7.2-50.2,20.3-13.4,13.2-21,31.1-21.2,49.9v265.7c.2,18.8,7.8,36.7,21.2,49.9,13.4,13.2,31.5,20.5,50.2,20.3Z"/>
  <path class="st0" d="M516.5,738.5h127.9c38.3,1.1,70.3-29.1,71.4-67.4v-45.8c-1.2-38.3-33.1-68.4-71.4-67.4h-128c-38.3-1.1-70.2,29.1-71.4,67.4v45.7c1.1,38.3,33.1,68.5,71.4,67.4Z"/>
</svg>